<?xml version="1.0" encoding="UTF-8"?>
<svg id="Layer_2" xmlns="http://www.w3.org/2000/svg" xmlns:xlink="http://www.w3.org/1999/xlink" viewBox="0 0 267.74 274.93">
  <defs>
    <style>
      .cls-1 {
        fill: none;
        stroke-width: 8px;
      }

      .cls-1, .cls-2 {
        stroke: #231f20;
        stroke-miterlimit: 10;
      }

      .cls-3 {
        font-family: VintafaceRegularRegular, Vintaface-Regular;
        font-size: 35.41px;
      }

      .cls-3, .cls-4, .cls-2 {
        fill: #231f20;
      }

      .cls-5 {
        fill: #fffde3;
      }

      .cls-6 {
        fill: #f15a29;
        opacity: .56;
      }

      .cls-2 {
        stroke-width: 4px;
      }

      .cls-7 {
        fill: #fefce5;
      }

      .cls-8 {
        fill: url(#linear-gradient);
      }
    </style>
    <linearGradient id="linear-gradient" x1="171.54" y1="141.32" x2="128.74" y2="215.44" gradientUnits="userSpaceOnUse">
      <stop offset=".31" stop-color="#12c3f4"/>
      <stop offset=".32" stop-color="#15bef1"/>
      <stop offset=".47" stop-color="#3a91d1"/>
      <stop offset=".62" stop-color="#586db8"/>
      <stop offset=".76" stop-color="#6d53a6"/>
      <stop offset=".88" stop-color="#7a449b"/>
      <stop offset=".98" stop-color="#7f3f98"/>
    </linearGradient>
  </defs>
  <g id="Layer_1-2" data-name="Layer_1">
    <circle class="cls-1" cx="139.39" cy="177.6" r="93.33"/>
    <text class="cls-3" transform="translate(44.5 145.29) rotate(-65.88)"><tspan x="0" y="0">S</tspan></text>
    <text class="cls-3" transform="translate(53.33 125.72) rotate(-54.43)"><tspan x="0" y="0">l</tspan></text>
    <text class="cls-3" transform="translate(63.67 110.92) rotate(-43.36)"><tspan x="0" y="0">o</tspan></text>
    <text class="cls-3" transform="translate(78.06 97.17) rotate(-31.78)"><tspan x="0" y="0">p</tspan></text>
    <text class="cls-3" transform="translate(95.1 86.42) rotate(-20.06)"><tspan x="0" y="0">C</tspan></text>
    <text class="cls-3" transform="translate(114.14 79.31) rotate(-8.3)"><tspan x="0" y="0">a</tspan></text>
    <text class="cls-3" transform="translate(134.37 76.25) rotate(3.47)"><tspan x="0" y="0">p</tspan></text>
    <text class="cls-3" transform="translate(154.69 77.82) rotate(12.18)"><tspan x="0" y="0"> </tspan></text>
    <text class="cls-3" transform="translate(164.35 79.41) rotate(20.95)"><tspan x="0" y="0">G</tspan></text>
    <text class="cls-3" transform="translate(183.49 86.61) rotate(32.78)"><tspan x="0" y="0">a</tspan></text>
    <text class="cls-3" transform="translate(200.87 97.33) rotate(45.92)"><tspan x="0" y="0">m</tspan></text>
    <text class="cls-3" transform="translate(217.96 115.31) rotate(58.35)"><tspan x="0" y="0">e</tspan></text>
    <text class="cls-3" transform="translate(227.76 130.74) rotate(69.6)"><tspan x="0" y="0">s</tspan></text>
    <path class="cls-8" d="M138.96,123.34l-15.51,4.28-18-4.57-3.21,6.03,2.13,8.17-1.16,2.11-9.21-1.22-2.49,8.32-.48,12.06,1.73,6.57,7.65-2.11,3.81,6.63.72,9.83-1.73,3.86-4.18,1.8,2.41,8.9s6.44,7.46,6.26,8.12c-.18.67,7.3,5.37,7.3,5.37l5.3,1.38,2.66-4.5,4.85.11,5.95,2.98,5.21,5.7-.56,5.16s6.3,14.04,29.13,7.03v-4.75s14.49-5.14,20.91-.77l1.65,5.19s17.23.76,19.9-15.41c0,0-11.52-11.87-9.49-17.71,0,0,5.19-23.98-35.72-48.88-2.4-3.28-6.12-7.61-11.5-11.71-5.37-4.09-10.52-6.52-14.31-7.98Z"/>
    <circle class="cls-6" cx="88.74" cy="154.38" r="28.57"/>
    <circle class="cls-6" cx="113.74" cy="207.62" r="19.78"/>
    <g>
      <g>
        <path class="cls-4" d="M105.37,139.29c-4.48-3.25-5.09-9.3-4.91-14.35.11-3.55,4.03-6.19,7.36-4.98.97.3,2.77.94,3.75,1.26,4.36,1.51,8.65,3,12.88,5,.71.31.47,1.45-.3,1.45-3.17.11-6.28-.17-9.36-.61-2.92-.37-5.84-1.06-8.66-1.76-.29,3.73-.57,8.26,1.36,11.7,1.04,1.42-.65,3.25-2.12,2.28h0Z"/>
        <path class="cls-4" d="M114.06,138.7c-5.38,3.13-12.28,3.91-18.45,2.34-1.37,5.24-2.39,10.83-2.12,16.22.1,1.84.45,3.57,1.01,5.27.05.26.28.43.56.45,4.28-1.55,9.36-3.42,13.75-1.07.36.2.48.66.28,1.02-.16.29-.49.43-.8.36-2.33-.49-4.72.15-6.96,1.12-1.12.48-2.22,1.03-3.28,1.67-.7.43-1.47.92-2.33,1.06-7.83,1.34-8.05-12.7-7.48-17.78.32-3.09.91-6.11,1.75-9.07.53-3,3.62-5.35,6.73-4.6,5.18,1.67,10.66,1.7,16.12.13,1.77-.51,2.81,1.95,1.22,2.87h0Z"/>
        <path class="cls-4" d="M117.27,173.49c-2.24,6.5-7.7,11.56-14.79,11.58-.06.02-.12.15-.04.14,0,.02,0-.04.02.07,1.29,7.72,5.59,14.93,12.31,19.1,1.12.74,2.78,1.59,4,2.18.11.06.21.1.35.08.2-.03.4-.2.46-.41.55-3.35,1.77-6.63,4.23-9.1,1.34-1.31,3.03-2.28,4.79-2.7,1.76-.44,3.52-.39,5.19-.16.41.06.69.44.63.84-.05.35-.33.6-.67.64-1.55.14-3.05.45-4.34,1.04-3.68,1.61-5.11,5.65-5.41,9.4-.04.51-.08,1.09-.24,1.58-.74,2.68-3.88,4.35-6.53,3.41-1.61-.59-3.65-1.49-5.14-2.31-6.15-3.37-10.97-9.2-13.34-15.79-.75-2.06-1.26-4.18-1.61-6.33-.53-2.1.27-4.59,2.06-5.82.94-.82,2.96-1.18,3.88-1.07,0,0,.95,0,.95,0,4.53-.28,8.02-3.74,10.35-7.55.88-1.73,3.5-.66,2.88,1.18h0Z"/>
        <path class="cls-4" d="M103.13,180.14c-.3-2.3-.3-4.46-.68-6.71-.58-3.21-1.92-5.93-3.77-8.77-.47-.54-.06-1.41.67-1.32,5.83.72,9.61,7.13,8.72,12.68-.25,1.8-1.67,6.99-4.23,5.4-.44-.31-.64-.78-.71-1.27h0Z"/>
        <path class="cls-4" d="M145,201.93c1.13,5.86-.19,12.28-4.38,16.68-.06.08-.18.19-.19.23.02.05.06.1.11.15,5.42,4.49,12.61,6.11,19.58,6.03,1.36-.02,3.86-.15,5.06-.31.12-.04.25-.16.31-.31.09-.25.03-.35-.05-.71-.23-.97-.39-1.97-.47-2.96-.13-1.59-.1-3.19.12-4.76.45-3.14,1.68-6.13,3.53-8.55.51-.69,1.63-.05,1.29.74-1.92,4.68-2.02,9.69-.35,14.36,1.15,2.64-.4,6.06-3.24,6.85-2.04.49-3.94.65-5.98.87-7.83.58-16.21-1.17-22.42-6.26-2.81-1.79-3.84-5.86-1.52-8.48.71-.72,1.44-1.43,2.07-2.22,2.34-3.09,3.32-7.24,3.43-11.07.06-1.83,2.73-2.05,3.09-.26h0Z"/>
        <path class="cls-4" d="M139.01,215.64c-3.45-3.02-6.48-6.27-10.82-7.99-1.41-.62-3.04-1.13-4.72-1.59-.64-.15-.76-1.08-.2-1.4,5.38-3.21,12.68-.64,16.14,4.21,1.06,1.45,4.01,6.51,1.06,7.2-.55.11-1.06-.09-1.46-.42h0Z"/>
        <path class="cls-4" d="M186.45,221.85c-6.02-.86-11.43-.86-17.46.1-.68.18-1.27-.63-.86-1.21,3.28-4.65,9.78-6.31,15.07-4.56,1.77.58,6.72,2.97,4.68,5.23-.4.39-.92.5-1.43.44h0Z"/>
        <path class="cls-4" d="M186.3,205.77c3.83,4.78,5.67,11.11,5.6,17.25.06.07.16.1.17.06,3.45-.83,7.09-2.09,9.86-4.18,2.42-1.53,5.13-5.42,5.61-7.83,0-.12-.05-.22-.13-.32-.23-.16-.69-.49-.92-.66-.64-.42-1.38-1.19-1.92-1.73-1.86-2.11-3.02-4.83-3.64-7.51-.64-3-.82-5.96-.45-8.94.05-.41.42-.7.83-.65.36.04.62.33.65.67.93,5.25,2.36,11.4,7.09,14.36,1.49.7,2.8,1.91,3.21,3.56.56,2.02-.25,3.98-.92,5.79-2.5,6.11-8.45,10.19-14.51,11.98-.98.32-2.36.62-3.36.84-1.98.52-4.24-.19-5.54-1.73-.92-1.04-1.4-2.49-1.34-3.86.36-5.25-.55-10.54-2.91-15.39-.82-1.67,1.46-3.13,2.62-1.69h0Z"/>
        <path class="cls-4" d="M199.71,191.5c2.75-16.16-20.86-35.24-31.13-43.29,0,0-6.31-3.42-6.31-3.42l-.55-.3-.35-.47c-9.8-13.39-26.06-28.68-40.43-11.56-.24.36-.74.45-1.08.17-.29-.23-.36-.63-.19-.94,1.16-2.09,2.63-3.88,4.38-5.49,1.76-1.58,3.8-2.92,6.09-3.79,14.53-5.11,27.36,7.9,35.6,18.3,0,0-.9-.77-.9-.77l6.39,3.28c.08.04.25.13.32.19,8.11,5.98,15.51,12.55,21.85,20.38,4.7,5.9,9.08,12.79,10.07,20.53.32,2.64.14,5.4-.71,7.96-.27.82-1.15,1.26-1.97.99-.76-.25-1.2-1.04-1.04-1.8h0Z"/>
      </g>
      <g>
        <path class="cls-4" d="M191.05,173.7c12.26,12.87,6.29,22.63-10.12,24.46-3.8.5-7.57.63-11.32.65-2.17.01-3.94-1.73-3.95-3.9-.01-2.17,1.73-3.94,3.9-3.95,6.79.7,14.07,1.94,20.57-.43,7.13-2.7,3.01-11.21-.31-15.73-.66-.8.51-1.85,1.24-1.11h0Z"/>
        <path class="cls-4" d="M129.22,135.22c-4.12,4.1-7.11,10.25-6.2,16.1.84,5.9,4.97,10.69,9.53,14.4,2.92,2.48-.62,6.88-3.67,4.53-5.12-4.82-9.62-11.21-10.02-18.54-.41-7.26,3.35-13.87,8.74-18.42,1.3-1.02,2.86.84,1.62,1.94h0Z"/>
        <g>
          <g>
            <g>
              <ellipse class="cls-7" cx="179.39" cy="146.44" rx="27.5" ry="15.81" transform="translate(25.85 319.79) rotate(-87.69)"/>
              <path class="cls-4" d="M165.4,145.88c-.37,8.65,2.67,24.86,12.96,26.04,10.4-.33,14.7-16.24,15.01-24.91.2-5.53-.43-11.18-2.44-16.27-2.75-7.53-9.86-14-17.16-7.37-5.95,5.7-7.99,14.44-8.37,22.51h0ZM161.78,145.73c.46-10.66,5.72-28.2,18.78-28.39,13.07,1.26,16.85,19.09,16.44,29.81-.45,8.95-2.81,18.58-9.59,25.05-5.37,5.12-13.14,4.82-18.1-.72-6.27-6.99-7.82-16.8-7.53-25.75h0Z"/>
            </g>
            <ellipse class="cls-2" cx="174.72" cy="149.42" rx="13.46" ry="9.35" transform="translate(18.39 317.99) rotate(-87.69)"/>
          </g>
          <path class="cls-7" d="M188.75,138.5c-.57-.02-9.42,9.51-9.42,9.51l9.68,1.49-.25-11Z"/>
        </g>
        <g>
          <g>
            <g>
              <ellipse class="cls-5" cx="153.7" cy="142.74" rx="27.5" ry="15.81" transform="translate(4.89 290.58) rotate(-87.69)"/>
              <path class="cls-4" d="M139.71,142.18c-.37,8.65,2.67,24.86,12.96,26.04,10.4-.33,14.7-16.24,15.01-24.91.2-5.53-.43-11.18-2.44-16.27-2.75-7.53-9.86-14-17.16-7.37-5.95,5.7-7.99,14.44-8.37,22.51h0ZM136.09,142.03c.46-10.66,5.72-28.2,18.78-28.39,13.07,1.26,16.85,19.09,16.44,29.81-.45,8.95-2.81,18.58-9.59,25.05-5.37,5.12-13.14,4.82-18.1-.72-6.27-6.99-7.82-16.8-7.53-25.75h0Z"/>
            </g>
            <ellipse class="cls-2" cx="149.03" cy="145.73" rx="13.46" ry="9.35" transform="translate(-2.57 288.77) rotate(-87.69)"/>
          </g>
          <path class="cls-7" d="M163.06,134.8c-.57-.02-9.42,9.51-9.42,9.51l9.68,1.49-.25-11Z"/>
        </g>
      </g>
    </g>
    <circle class="cls-6" cx="79.37" cy="197.93" r="11.65"/>
  </g>
</svg>